<?xml version="1.0" encoding="utf-8"?>
<!-- Generator: Adobe Illustrator 23.0.1, SVG Export Plug-In . SVG Version: 6.00 Build 0)  -->
<svg version="1.1" id="图层_1" xmlns="http://www.w3.org/2000/svg" xmlns:xlink="http://www.w3.org/1999/xlink" x="0px" y="0px"
	 viewBox="0 0 322.6 322.6" style="enable-background:new 0 0 322.6 322.6;" xml:space="preserve">
<style type="text/css">
	.st0{fill:#FFFFFF;}
	.st1{fill:#E18241;}
</style>
<circle class="st0" cx="73.2" cy="129.2" r="50"/>
<circle class="st0" cx="250.7" cy="128.6" r="50"/>
<title>gosling-bg</title>
<g>
	<g id="图层_1-2">
		<g id="Layer_2">
			<g id="Gosling_Logo">
				<circle cx="72.8" cy="128.6" r="41.7"/>
				<circle class="st0" cx="86.3" cy="113.1" r="10.8"/>
				<ellipse transform="matrix(0.1602 -0.9871 0.9871 0.1602 83.593 355.4718)" cx="250.7" cy="128.6" rx="41.7" ry="41.7"/>
				<circle class="st0" cx="264.2" cy="113.1" r="10.8"/>
				<path class="st1" d="M275.2,240.6l8.6-22.1c-28.7-8.3-58.2-13.7-88-15.9l-9.7,21.9C216.4,226.4,246.3,231.8,275.2,240.6z"/>
				<path class="st1" d="M170.8,259.5c30.9,0.9,61.4,6.6,90.6,16.8l8.8-22.5c-29.2-8.8-59.5-14-90-15.5L170.8,259.5z"/>
				<path class="st1" d="M136.5,224.5l-9-22c-29.8,2.1-59.3,7.3-88,15.4l8.9,22C77.1,231.4,106.7,226.2,136.5,224.5z"/>
				<path class="st1" d="M62.8,275.3c28.4-9.6,58-15,87.9-15.8l-8.6-21.2c-29.9,1.3-59.6,6.3-88.3,14.7L62.8,275.3z"/>
				<path class="st1" d="M68.7,289.7c27.5,13.9,59,21.3,92.1,21.3l0,0c33.7,0,65.8-7.7,93.8-22.2c-60.4-20.5-125.9-20.7-186.3-0.4
					L68.7,289.7z"/>
			</g>
		</g>
	</g>
</g>
</svg>
